HIERARCHY
ROOT mixamorig:Hips
{
	OFFSET 0.000000 87.162163 2.265141
	CHANNELS 6 Xposition Yposition Zposition Xrotation Yrotation Zrotation
	JOINT mixamorig:Spine
	{
		OFFSET 0.000000 7.848404 3.918341
		CHANNELS 3 Xrotation Yrotation Zrotation
		JOINT mixamorig:Spine1
		{
			OFFSET -0.000000 11.439644 0.688892
			CHANNELS 3 Xrotation Yrotation Zrotation
			JOINT mixamorig:Spine2
			{
				OFFSET 0.000000 13.053993 -1.801730
				CHANNELS 3 Xrotation Yrotation Zrotation
				JOINT mixamorig:Neck
				{
					OFFSET 0.000000 14.136909 -5.258943
					CHANNELS 3 Xrotation Yrotation Zrotation
					JOINT mixamorig:Head
					{
						OFFSET -0.000000 10.430710 -0.827983
						CHANNELS 3 Xrotation Yrotation Zrotation
						JOINT mixamorig:HeadTop_End
						{
							OFFSET 0.000000 21.740402 -0.604783
							CHANNELS 3 Xrotation Yrotation Zrotation
							End Site
							{
								OFFSET 0.000000 25.832031 -0.000000
							}
						}
						JOINT mixamorig:Visor1
						{
							OFFSET -0.003251 25.655350 16.551157
							CHANNELS 3 Xrotation Yrotation Zrotation
							End Site
							{
								OFFSET 0.000000 25.832031 0.000000
							}
						}
						JOINT mixamorig:HairMidA1
						{
							OFFSET -0.001033 31.569519 8.438098
							CHANNELS 3 Xrotation Yrotation Zrotation
							End Site
							{
								OFFSET 0.000000 25.832016 -0.000000
							}
						}
						JOINT mixamorig:HairMidB1
						{
							OFFSET 0.003633 33.293411 -8.388910
							CHANNELS 3 Xrotation Yrotation Zrotation
							End Site
							{
								OFFSET 0.000000 25.832031 0.000000
							}
						}
						JOINT mixamorig:HairMidC1
						{
							OFFSET 0.006163 27.975342 -17.374311
							CHANNELS 3 Xrotation Yrotation Zrotation
							End Site
							{
								OFFSET 0.000000 25.832016 0.000000
							}
						}
						JOINT mixamorig:HairMidD1
						{
							OFFSET 0.007279 17.872238 -21.168732
							CHANNELS 3 Xrotation Yrotation Zrotation
							End Site
							{
								OFFSET 0.000000 25.832031 0.000000
							}
						}
						JOINT mixamorig:HairMidE1
						{
							OFFSET 4.865269 3.498810 -14.368998
							CHANNELS 3 Xrotation Yrotation Zrotation
							End Site
							{
								OFFSET 0.000000 25.832016 0.000000
							}
						}
						JOINT mixamorig:HairMidF1
						{
							OFFSET -4.854524 3.498764 -14.371698
							CHANNELS 3 Xrotation Yrotation Zrotation
							End Site
							{
								OFFSET 0.000000 25.832031 0.000000
							}
						}
						JOINT mixamorig:HairLeftA1
						{
							OFFSET 14.859479 25.730682 2.624092
							CHANNELS 3 Xrotation Yrotation Zrotation
							End Site
							{
								OFFSET 0.000000 25.832016 -0.000000
							}
						}
						JOINT mixamorig:HairLeftB1
						{
							OFFSET 12.159076 29.273544 -8.730730
							CHANNELS 3 Xrotation Yrotation Zrotation
							End Site
							{
								OFFSET 0.000000 25.832031 0.000000
							}
						}
						JOINT mixamorig:HairLeftC1
						{
							OFFSET 15.254454 15.944077 2.910579
							CHANNELS 3 Xrotation Yrotation Zrotation
							End Site
							{
								OFFSET 0.000000 25.832031 -0.000000
							}
						}
						JOINT mixamorig:HairLeftD1
						{
							OFFSET 15.641331 18.421539 -7.552444
							CHANNELS 3 Xrotation Yrotation Zrotation
							End Site
							{
								OFFSET 0.000000 25.832016 0.000000
							}
						}
						JOINT mixamorig:HairLeftE1
						{
							OFFSET 9.271540 17.899170 -18.316099
							CHANNELS 3 Xrotation Yrotation Zrotation
							End Site
							{
								OFFSET 0.000000 25.832016 0.000000
							}
						}
						JOINT mixamorig:HairLeftF1
						{
							OFFSET 10.743909 4.937805 -9.667402
							CHANNELS 3 Xrotation Yrotation Zrotation
							End Site
							{
								OFFSET 0.000000 25.832016 0.000000
							}
						}
						JOINT mixamorig:HairRightA1
						{
							OFFSET -14.858240 25.730515 2.615833
							CHANNELS 3 Xrotation Yrotation Zrotation
							End Site
							{
								OFFSET 0.000000 25.832031 -0.000000
							}
						}
						JOINT mixamorig:HairRightB1
						{
							OFFSET -12.151567 29.273392 -8.737486
							CHANNELS 3 Xrotation Yrotation Zrotation
							End Site
							{
								OFFSET 0.000000 25.832031 0.000000
							}
						}
						JOINT mixamorig:HairRightC1
						{
							OFFSET -15.253256 15.943893 2.902101
							CHANNELS 3 Xrotation Yrotation Zrotation
							End Site
							{
								OFFSET 0.000000 25.832031 -0.000000
							}
						}
						JOINT mixamorig:HairRightD1
						{
							OFFSET -15.634346 18.421341 -7.561136
							CHANNELS 3 Xrotation Yrotation Zrotation
							End Site
							{
								OFFSET 0.000000 25.832031 0.000000
							}
						}
						JOINT mixamorig:HairRightE1
						{
							OFFSET -9.258568 17.899063 -18.321249
							CHANNELS 3 Xrotation Yrotation Zrotation
							End Site
							{
								OFFSET 0.000000 25.832031 0.000000
							}
						}
						JOINT mixamorig:HairRightF1
						{
							OFFSET -10.735586 4.937683 -9.673372
							CHANNELS 3 Xrotation Yrotation Zrotation
							End Site
							{
								OFFSET 0.000000 25.832016 0.000000
							}
						}
					}
				}
				JOINT mixamorig:LeftShoulder
				{
					OFFSET 4.765166 7.323875 -1.972899
					CHANNELS 3 Xrotation Yrotation Zrotation
					JOINT mixamorig:LeftArm
					{
						OFFSET 8.083765 0.939484 -2.176468
						CHANNELS 3 Xrotation Yrotation Zrotation
						JOINT mixamorig:LeftForeArm
						{
							OFFSET 31.292164 0.000000 -0.000001
							CHANNELS 3 Xrotation Yrotation Zrotation
							JOINT mixamorig:LeftHand
							{
								OFFSET 31.723660 0.000000 -0.000001
								CHANNELS 3 Xrotation Yrotation Zrotation
								JOINT mixamorig:LeftHandThumb1
								{
									OFFSET 2.902626 -2.560440 4.416488
									CHANNELS 3 Xrotation Yrotation Zrotation
									JOINT mixamorig:LeftHandThumb2
									{
										OFFSET 2.339828 -1.345810 1.355842
										CHANNELS 3 Xrotation Yrotation Zrotation
										JOINT mixamorig:LeftHandThumb3
										{
											OFFSET 2.219818 -1.276772 1.286309
											CHANNELS 3 Xrotation Yrotation Zrotation
											JOINT mixamorig:LeftHandThumb4
											{
												OFFSET 2.285744 -1.314713 1.324502
												CHANNELS 3 Xrotation Yrotation Zrotation
												End Site
												{
													OFFSET 2.285744 -1.314705 1.324502
												}
											}
										}
									}
								}
								JOINT mixamorig:LeftHandIndex1
								{
									OFFSET 8.585075 -0.644569 3.119858
									CHANNELS 3 Xrotation Yrotation Zrotation
									JOINT mixamorig:LeftHandIndex2
									{
										OFFSET 3.348534 0.000000 0.000030
										CHANNELS 3 Xrotation Yrotation Zrotation
										JOINT mixamorig:LeftHandIndex3
										{
											OFFSET 3.314537 0.000008 0.000047
											CHANNELS 3 Xrotation Yrotation Zrotation
											JOINT mixamorig:LeftHandIndex4
											{
												OFFSET 2.937866 0.000000 0.000000
												CHANNELS 3 Xrotation Yrotation Zrotation
												End Site
												{
													OFFSET 2.937874 0.000000 0.000000
												}
											}
										}
									}
								}
								JOINT mixamorig:LeftHandMiddle1
								{
									OFFSET 8.140663 -0.002594 -0.000072
									CHANNELS 3 Xrotation Yrotation Zrotation
									JOINT mixamorig:LeftHandMiddle2
									{
										OFFSET 4.166290 -0.000015 0.000030
										CHANNELS 3 Xrotation Yrotation Zrotation
										JOINT mixamorig:LeftHandMiddle3
										{
											OFFSET 3.018105 0.000053 0.000032
											CHANNELS 3 Xrotation Yrotation Zrotation
											JOINT mixamorig:LeftHandMiddle4
											{
												OFFSET 4.093719 0.000000 -0.000000
												CHANNELS 3 Xrotation Yrotation Zrotation
												End Site
												{
													OFFSET 4.093719 0.000000 -0.000000
												}
											}
										}
									}
								}
								JOINT mixamorig:LeftHandRing1
								{
									OFFSET 8.587761 -0.034004 -2.884224
									CHANNELS 3 Xrotation Yrotation Zrotation
									JOINT mixamorig:LeftHandRing2
									{
										OFFSET 3.671196 0.000023 0.000002
										CHANNELS 3 Xrotation Yrotation Zrotation
										JOINT mixamorig:LeftHandRing3
										{
											OFFSET 2.728828 0.000015 0.000020
											CHANNELS 3 Xrotation Yrotation Zrotation
											JOINT mixamorig:LeftHandRing4
											{
												OFFSET 3.622383 0.000000 -0.000000
												CHANNELS 3 Xrotation Yrotation Zrotation
												End Site
												{
													OFFSET 3.622383 0.000000 -0.000000
												}
											}
										}
									}
								}
								JOINT mixamorig:LeftHandPinky1
								{
									OFFSET 7.870621 -0.677841 -5.213132
									CHANNELS 3 Xrotation Yrotation Zrotation
									JOINT mixamorig:LeftHandPinky2
									{
										OFFSET 3.068542 0.000000 0.000007
										CHANNELS 3 Xrotation Yrotation Zrotation
										JOINT mixamorig:LeftHandPinky3
										{
											OFFSET 2.395981 0.000023 0.000042
											CHANNELS 3 Xrotation Yrotation Zrotation
											JOINT mixamorig:LeftHandPinky4
											{
												OFFSET 2.849014 0.000000 0.000000
												CHANNELS 3 Xrotation Yrotation Zrotation
												End Site
												{
													OFFSET 2.849014 0.000000 -0.000000
												}
											}
										}
									}
								}
							}
							JOINT mixamorig:Left_Sleeve
							{
								OFFSET 19.653255 0.000000 -0.000001
								CHANNELS 3 Xrotation Yrotation Zrotation
								End Site
								{
									OFFSET 25.688454 0.000000 -0.000001
								}
							}
						}
					}
				}
				JOINT mixamorig:Whistle0
				{
					OFFSET -0.000105 11.453896 -0.009937
					CHANNELS 3 Xrotation Yrotation Zrotation
					JOINT mixamorig:Whistle1
					{
						OFFSET -0.002040 -6.349861 7.479822
						CHANNELS 3 Xrotation Yrotation Zrotation
						JOINT mixamorig:Whistle2
						{
							OFFSET -0.001261 -8.217644 4.717566
							CHANNELS 3 Xrotation Yrotation Zrotation
							End Site
							{
								OFFSET -0.001261 -8.217644 4.717560
							}
						}
					}
				}
				JOINT mixamorig:Right_Breast1
				{
					OFFSET -5.315914 3.102715 3.080552
					CHANNELS 3 Xrotation Yrotation Zrotation
					End Site
					{
						OFFSET 0.000000 10.519180 0.000000
					}
				}
				JOINT mixamorig:Left_Breast1
				{
					OFFSET 5.314172 3.102776 3.083506
					CHANNELS 3 Xrotation Yrotation Zrotation
					End Site
					{
						OFFSET 0.000000 10.519180 0.000000
					}
				}
				JOINT mixamorig:Hood0
				{
					OFFSET 0.001381 14.430473 -5.423190
					CHANNELS 3 Xrotation Yrotation Zrotation
					JOINT mixamorig:Hood1
					{
						OFFSET 0.001672 -5.553818 -5.895096
						CHANNELS 3 Xrotation Yrotation Zrotation
						JOINT mixamorig:Hood2
						{
							OFFSET -0.000161 -8.380455 0.763632
							CHANNELS 3 Xrotation Yrotation Zrotation
							End Site
							{
								OFFSET -0.000161 -8.380463 0.763632
							}
						}
					}
				}
				JOINT mixamorig:RightShoulder
				{
					OFFSET -4.765170 7.323799 -1.972894
					CHANNELS 3 Xrotation Yrotation Zrotation
					JOINT mixamorig:RightArm
					{
						OFFSET -8.083729 0.940002 -2.176473
						CHANNELS 3 Xrotation Yrotation Zrotation
						JOINT mixamorig:RightForeArm
						{
							OFFSET -31.292198 0.000008 -0.000001
							CHANNELS 3 Xrotation Yrotation Zrotation
							JOINT mixamorig:RightHand
							{
								OFFSET -31.723610 -0.000015 0.000001
								CHANNELS 3 Xrotation Yrotation Zrotation
								JOINT mixamorig:RightHandThumb1
								{
									OFFSET -2.902702 -2.560997 4.416483
									CHANNELS 3 Xrotation Yrotation Zrotation
									JOINT mixamorig:RightHandThumb2
									{
										OFFSET -2.339806 -1.346001 1.355854
										CHANNELS 3 Xrotation Yrotation Zrotation
										JOINT mixamorig:RightHandThumb3
										{
											OFFSET -2.219788 -1.275993 1.286288
											CHANNELS 3 Xrotation Yrotation Zrotation
											JOINT mixamorig:RightHandThumb4
											{
												OFFSET -2.285805 -1.315025 1.324511
												CHANNELS 3 Xrotation Yrotation Zrotation
												End Site
												{
													OFFSET -2.285828 -1.314980 1.324511
												}
											}
										}
									}
								}
								JOINT mixamorig:RightHandIndex1
								{
									OFFSET -8.585098 -0.644997 3.119853
									CHANNELS 3 Xrotation Yrotation Zrotation
									JOINT mixamorig:RightHandIndex2
									{
										OFFSET -3.348602 0.000000 0.000030
										CHANNELS 3 Xrotation Yrotation Zrotation
										JOINT mixamorig:RightHandIndex3
										{
											OFFSET -3.314499 0.000000 0.000050
											CHANNELS 3 Xrotation Yrotation Zrotation
											JOINT mixamorig:RightHandIndex4
											{
												OFFSET -2.937897 0.000000 0.000000
												CHANNELS 3 Xrotation Yrotation Zrotation
												End Site
												{
													OFFSET -2.937897 0.000000 0.000000
												}
											}
										}
									}
								}
								JOINT mixamorig:RightHandMiddle1
								{
									OFFSET -8.140701 -0.002998 -0.000071
									CHANNELS 3 Xrotation Yrotation Zrotation
									JOINT mixamorig:RightHandMiddle2
									{
										OFFSET -4.166290 0.000000 0.000030
										CHANNELS 3 Xrotation Yrotation Zrotation
										JOINT mixamorig:RightHandMiddle3
										{
											OFFSET -3.018105 0.000000 0.000032
											CHANNELS 3 Xrotation Yrotation Zrotation
											JOINT mixamorig:RightHandMiddle4
											{
												OFFSET -4.093704 0.000000 0.000000
												CHANNELS 3 Xrotation Yrotation Zrotation
												End Site
												{
													OFFSET -4.093704 0.000000 0.000000
												}
											}
										}
									}
								}
								JOINT mixamorig:RightHandRing1
								{
									OFFSET -8.587799 -0.033997 -2.884227
									CHANNELS 3 Xrotation Yrotation Zrotation
									JOINT mixamorig:RightHandRing2
									{
										OFFSET -3.671211 0.000000 0.000010
										CHANNELS 3 Xrotation Yrotation Zrotation
										JOINT mixamorig:RightHandRing3
										{
											OFFSET -2.728790 0.000000 0.000020
											CHANNELS 3 Xrotation Yrotation Zrotation
											JOINT mixamorig:RightHandRing4
											{
												OFFSET -3.622398 0.000000 0.000000
												CHANNELS 3 Xrotation Yrotation Zrotation
												End Site
												{
													OFFSET -3.622398 0.000000 0.000000
												}
											}
										}
									}
								}
								JOINT mixamorig:RightHandPinky1
								{
									OFFSET -7.870697 -0.678001 -5.213128
									CHANNELS 3 Xrotation Yrotation Zrotation
									JOINT mixamorig:RightHandPinky2
									{
										OFFSET -3.068512 0.000000 0.000000
										CHANNELS 3 Xrotation Yrotation Zrotation
										JOINT mixamorig:RightHandPinky3
										{
											OFFSET -2.395988 0.000000 0.000050
											CHANNELS 3 Xrotation Yrotation Zrotation
											JOINT mixamorig:RightHandPinky4
											{
												OFFSET -2.848999 0.000000 0.000000
												CHANNELS 3 Xrotation Yrotation Zrotation
												End Site
												{
													OFFSET -2.848999 0.000000 0.000000
												}
											}
										}
									}
								}
							}
							JOINT mixamorig:Right_Sleeve
							{
								OFFSET -19.653206 -0.000015 0.000001
								CHANNELS 3 Xrotation Yrotation Zrotation
								End Site
								{
									OFFSET -25.688393 0.000000 0.000000
								}
							}
						}
					}
				}
			}
		}
		JOINT mixamorig:Belly1
		{
			OFFSET 0.212380 1.592979 3.163679
			CHANNELS 3 Xrotation Yrotation Zrotation
			End Site
			{
				OFFSET 0.000000 7.504410 0.000000
			}
		}
	}
	JOINT mixamorig:LeftUpLeg
	{
		OFFSET 11.866977 -9.376381 -2.439418
		CHANNELS 3 Xrotation Yrotation Zrotation
		JOINT mixamorig:LeftLeg
		{
			OFFSET 0.000000 -32.909191 0.854440
			CHANNELS 3 Xrotation Yrotation Zrotation
			JOINT mixamorig:LeftFoot
			{
				OFFSET 0.000001 -31.923828 -3.032456
				CHANNELS 3 Xrotation Yrotation Zrotation
				JOINT mixamorig:LeftToeBase
				{
					OFFSET 0.000006 -12.942684 13.909951
					CHANNELS 3 Xrotation Yrotation Zrotation
					JOINT mixamorig:LeftToe_End
					{
						OFFSET 0.000011 0.111664 5.998963
						CHANNELS 3 Xrotation Yrotation Zrotation
						End Site
						{
							OFFSET -0.000007 0.111664 5.998962
						}
					}
				}
			}
		}
		JOINT mixamorig:Left_Butt1
		{
			OFFSET -6.630216 1.454788 -3.127206
			CHANNELS 3 Xrotation Yrotation Zrotation
			End Site
			{
				OFFSET -0.459490 18.609993 0.756214
			}
		}
		JOINT mixamorig:Left_ShortSleeve
		{
			OFFSET 0.000000 -15.493900 0.402277
			CHANNELS 3 Xrotation Yrotation Zrotation
			End Site
			{
				OFFSET 0.000000 -18.624737 0.483565
			}
		}
	}
	JOINT mixamorig:RightUpLeg
	{
		OFFSET -11.867000 -9.376366 -2.439418
		CHANNELS 3 Xrotation Yrotation Zrotation
		JOINT mixamorig:RightLeg
		{
			OFFSET -0.000001 -32.909199 0.854441
			CHANNELS 3 Xrotation Yrotation Zrotation
			JOINT mixamorig:RightFoot
			{
				OFFSET 0.000001 -31.923798 -3.032454
				CHANNELS 3 Xrotation Yrotation Zrotation
				JOINT mixamorig:RightToeBase
				{
					OFFSET 0.000008 -12.942620 13.910019
					CHANNELS 3 Xrotation Yrotation Zrotation
					JOINT mixamorig:RightToe_End
					{
						OFFSET -0.000007 0.111696 5.998960
						CHANNELS 3 Xrotation Yrotation Zrotation
						End Site
						{
							OFFSET -0.000012 0.111696 5.998960
						}
					}
				}
			}
		}
		JOINT mixamorig:Right_Butt1
		{
			OFFSET 6.630730 1.454857 -3.127160
			CHANNELS 3 Xrotation Yrotation Zrotation
			End Site
			{
				OFFSET 0.459464 18.610138 0.756796
			}
		}
		JOINT mixamorig:Right_ShortSleeve
		{
			OFFSET -0.000001 -15.493950 0.402279
			CHANNELS 3 Xrotation Yrotation Zrotation
			End Site
			{
				OFFSET 0.000000 -18.624908 0.483570
			}
		}
	}
}
MOTION
Frames: 2
Frame Time: 0.016667
-11.633703 89.381279 31.229696 5.873126 -9.017368 -754.620938 13.988923 -2.047579 11.653895 6.314679 -0.214431 0.679748 6.311190 -0.336325 0.669042 -0.422096 3.283861 0.929821 -23.587225 7.156356 24.765950 0.000000 0.000000 -0.000000 0.000000 0.000000 -0.000000 0.000001 0.000000 -0.000000 0.000000 0.000000 -0.000000 0.000000 0.000000 -0.000000 0.000000 0.000000 -0.000000 0.000000 0.000000 -0.000000 0.000000 0.000000 -0.000000 -0.000000 0.000000 -0.000000 0.000000 0.000000 -0.000000 0.000000 0.000000 -0.000000 0.000000 0.000000 -0.000000 0.000000 0.000000 -0.000000 0.000000 0.000000 -0.000000 0.000000 0.000000 -0.000000 0.000000 0.000000 -0.000000 0.000001 0.000000 -0.000000 0.000000 0.000000 -0.000000 0.000000 0.000000 -0.000000 0.000000 0.000000 -0.000000 0.456205 -3.143446 36.436645 -119.640845 -44.910953 -79.611244 0.000009 -11.558686 0.000002 7.030220 -12.837966 16.086714 7.729994 3.812772 9.499773 4.685879 17.318570 1.406722 -0.583230 1.579813 2.534873 -0.000001 0.000005 0.000001 1.318097 -5.417673 16.414403 0.003701 0.225208 -1.878339 0.058318 0.891945 -7.475902 -0.000001 0.000002 -0.000002 -0.286595 0.669012 11.899196 0.032267 0.664094 -5.553418 0.081865 1.056297 -8.860045 0.000001 -0.000003 -0.000002 -0.992267 8.278130 7.099940 0.140577 1.381730 -11.615231 0.118224 1.267768 -10.651511 0.000003 -0.000003 0.000001 -0.905512 18.998588 3.940953 0.307377 -2.027389 -17.693042 0.139693 1.376410 -11.581365 0.000001 -0.000002 0.000001 0.000001 0.000001 0.000002 0.000005 -0.000002 -0.000005 -0.000003 0.000000 0.000001 0.000002 0.000001 -0.000000 -0.000001 -0.000002 -0.000001 -0.000001 -0.000002 -0.000001 0.000003 -0.000002 -0.000003 0.000005 0.000002 0.000002 0.000000 0.000000 0.000000 -0.097860 0.535233 -16.778192 41.178148 -20.582037 46.734132 0.000007 6.360620 -0.000013 19.867950 -0.251174 4.132513 -2.902573 -4.252596 -18.793233 5.175198 -14.594871 -0.599535 -1.285206 0.135089 -2.110006 -0.000002 0.000000 0.000005 3.561170 7.249789 -34.908646 -0.000001 -0.000404 -0.000000 0.059254 0.905197 -7.496184 -0.000001 -0.000003 0.000001 1.552627 4.614746 -28.467938 0.000769 0.102877 -0.000070 -0.175592 0.716527 -5.749508 -0.000000 -0.000002 -0.000001 -0.052691 1.220348 -22.107787 0.000456 0.078887 -0.000077 -0.244187 0.386646 -3.079147 0.000001 0.000002 0.000000 -0.885025 -1.744520 -17.718928 -0.000003 -0.001218 0.000093 0.000633 0.095562 -0.779849 0.000001 -0.000001 0.000001 0.000000 0.000001 0.000000 0.000002 -0.000001 0.000002 -35.305497 20.616818 31.501833 20.083266 10.487159 5.907820 -13.956850 26.636607 3.922387 -4.111799 -0.000005 -0.000004 0.000000 -0.000002 0.000000 -0.002301 0.187829 -0.004881 0.000001 -0.000002 0.000001 -40.168319 9.801968 -39.630492 27.483155 -9.474097 -1.861841 10.635708 -1.662697 10.297982 -6.886395 -0.000018 -0.000008 -0.000001 0.000002 -0.000003 -0.002311 -0.188066 0.004877 -0.000001 -0.000000 0.000001 
-12.106949 88.847717 31.367847 5.504711 -9.534712 -754.508048 14.005030 -2.052227 11.640726 6.424426 -0.212582 0.694226 6.421035 -0.336371 0.683296 -0.422002 3.276429 0.927713 -23.772265 7.124550 24.652719 -0.000000 -0.000000 -0.000001 -0.000000 -0.000000 -0.000001 0.000000 -0.000000 -0.000001 -0.000000 -0.000000 -0.000001 -0.000000 -0.000000 -0.000001 -0.000000 -0.000000 -0.000001 -0.000000 -0.000000 -0.000001 -0.000000 -0.000000 -0.000001 -0.000000 -0.000000 -0.000000 -0.000000 -0.000000 -0.000001 -0.000000 -0.000000 -0.000001 -0.000000 -0.000001 -0.000001 -0.000000 -0.000000 -0.000001 -0.000000 -0.000000 -0.000001 -0.000000 -0.000000 -0.000001 -0.000000 -0.000000 -0.000001 0.000000 -0.000001 -0.000001 -0.000000 -0.000001 -0.000001 -0.000000 -0.000000 -0.000001 -0.000000 -0.000000 -0.000001 0.350477 -2.901824 36.916623 -120.909006 -45.556713 -79.135760 0.000007 -9.091344 -0.000001 5.550493 -13.488568 15.968325 7.729993 3.812772 9.499773 4.685885 17.318570 1.406717 -0.583229 1.579814 2.534883 -0.000001 0.000002 -0.000002 1.531732 -5.626784 18.634728 0.001992 0.165257 -1.377602 0.050745 0.832134 -6.972237 -0.000000 -0.000001 0.000000 -0.306546 0.403283 14.024625 0.025638 0.592073 -4.949443 0.074488 1.007793 -8.450198 0.000000 -0.000003 -0.000002 -1.295376 7.980992 9.242628 0.126427 1.310986 -11.012694 0.111393 1.230856 -10.337782 0.000001 -0.000000 0.000001 -1.655622 18.685376 6.263123 0.289382 -2.084593 -17.192993 0.133725 1.347033 -11.330860 -0.000002 0.000002 0.000003 -0.000000 -0.000002 -0.000003 0.000005 0.000000 -0.000001 -0.000000 0.000002 0.000001 -0.000003 0.000001 0.000000 -0.000000 0.000001 -0.000000 -0.000000 0.000001 -0.000000 0.000003 0.000001 -0.000003 0.000003 0.000001 0.000003 0.000003 -0.000001 0.000000 -0.061548 0.537726 -15.444793 43.929499 -24.492604 44.565140 -0.000008 9.020546 0.000015 21.856947 -1.952108 5.023665 -2.902575 -4.252600 -18.793231 5.175201 -14.594873 -0.599532 -1.285206 0.135089 -2.110006 0.000002 -0.000001 -0.000000 3.223216 7.085074 -32.199735 -0.000001 -0.000400 0.000012 0.103806 1.196022 -9.928996 -0.000000 -0.000005 0.000000 1.349513 4.368052 -25.873586 0.000551 0.086674 -0.000079 -0.253947 0.906978 -7.184638 0.000000 -0.000005 -0.000002 -0.100456 0.904779 -19.528462 0.000201 0.053978 -0.000061 -0.329402 0.433875 -3.413797 -0.000002 -0.000000 0.000002 -0.795195 -2.107173 -15.049161 0.000053 -0.028788 0.228022 0.000095 0.038882 -0.311550 -0.000001 -0.000001 0.000000 0.000002 0.000001 -0.000001 0.000000 0.000001 0.000001 -34.664245 18.600673 30.983743 23.005131 10.758049 5.882795 -16.138981 28.869587 3.988288 -3.871385 0.000009 0.000002 0.000000 0.000001 0.000000 -0.002302 0.187830 -0.004882 0.000001 0.000002 0.000000 -38.390516 10.830974 -38.672914 23.442905 -9.711362 -1.871374 12.774534 -0.170901 10.753481 -6.230397 -0.000002 0.000002 -0.000001 -0.000001 0.000001 -0.002311 -0.188064 0.004877 -0.000002 -0.000002 0.000001 
